# Blender 4.4.3
# www.blender.org
o Cube
v -1.934557 -1.500000 1.934557
v -1.934557 -0.967279 3.000000
v -3.000000 -0.967279 1.934557
v -1.934557 1.500000 1.934557
v -3.000000 0.967279 1.934557
v -1.934557 -1.500000 -1.934557
v -3.000000 -0.967279 -1.934557
v -1.934557 -0.967279 -3.000000
v -1.934557 1.500000 -1.934557
v -0.967279 1.967279 -5.000000
v -3.000000 0.967279 -1.934557
v 1.934557 -1.500000 1.934557
v 3.000000 -0.967279 1.934557
v 1.934557 -0.967279 3.000000
v 1.934557 1.500000 1.934557
v 3.000000 0.967279 1.934557
v 1.934557 -1.500000 -1.934557
v 1.934557 -0.967279 -3.000000
v 3.000000 -0.967279 -1.934557
v 1.934557 1.500000 -1.934557
v 3.000000 0.967279 -1.934557
v 0.967279 1.967279 -5.000000
v -0.967279 1.580367 -5.000000
v 0.967279 1.580367 -5.000000
v -3.000000 0.502985 1.934557
v -1.934557 0.502985 -3.000000
v 3.000000 0.502985 -1.934557
v 1.934557 0.502985 3.000000
v -1.934557 0.502985 3.000000
v -3.000000 0.502985 -1.934557
v 1.934557 0.502985 -3.000000
v 3.000000 0.502985 1.934557
v -1.934557 -1.500000 -1.934557
v -1.934557 -0.967279 -3.000000
v -0.967279 1.967279 5.000000
v 1.934557 -1.500000 -1.934557
v 1.934557 -0.967279 -3.000000
v 0.967279 1.967279 5.000000
v -0.967279 1.580367 5.000000
v 0.967279 1.580367 5.000000
v -1.934557 0.502985 3.000000
v 1.934557 0.502985 3.000000
vn -1.0000 -0.0000 -0.0000
vn -0.0000 1.0000 -0.0000
vn -0.4082 -0.8165 0.4082
vn -0.4082 -0.8165 -0.4082
vn -0.4472 0.8944 -0.0048
vn 0.4082 -0.8165 0.4082
vn 0.4082 -0.8165 -0.4082
vn 0.4472 0.8944 -0.0048
vn -0.4472 -0.8944 -0.0000
vn -0.4472 0.8944 -0.0000
vn -0.7071 -0.0000 -0.7071
vn -0.0000 0.9886 0.1507
vn 0.7071 -0.0000 -0.7071
vn 0.4472 -0.8944 -0.0000
vn 0.4472 0.8944 -0.0000
vn 0.7071 -0.0000 0.7071
vn -0.0000 -0.8944 0.4472
vn -0.0000 -1.0000 -0.0000
vn 0.8334 -0.0000 -0.5526
vn -0.8334 -0.0000 -0.5526
vn -0.0000 -0.8804 -0.4743
vn -0.0000 -0.0000 1.0000
vn 1.0000 -0.0000 -0.0000
vn -0.0000 -0.0000 -1.0000
vn -0.7071 -0.0000 0.7071
vn 0.5853 -0.5611 -0.5853
vn -0.5853 -0.5611 -0.5853
vn -0.4472 0.8944 0.0048
vn 0.4472 0.8944 0.0048
vn -0.0000 0.9886 -0.1507
vn -0.0000 -0.8944 -0.4472
vn 0.8334 -0.0000 0.5526
vn -0.8334 -0.0000 0.5526
vn -0.0000 -0.8804 0.4743
vn -0.5853 -0.5611 0.5853
vn 0.5853 -0.5611 0.5853
vt 0.541915 0.044393
vt 0.580607 0.044393
vt 0.580607 0.205607
vt 0.541915 0.205607
vt 0.669393 0.544393
vt 0.830607 0.544393
vt 0.830607 0.705607
vt 0.669393 0.705607
vt 0.169393 0.705607
vt 0.169393 0.750000
vt 0.125000 0.705607
vt 0.169393 0.544393
vt 0.125000 0.544393
vt 0.169393 0.500000
vt 0.625000 0.205607
vt 0.580607 0.250000
vt 0.330607 0.705607
vt 0.375000 0.705607
vt 0.330607 0.750000
vt 0.330607 0.544393
vt 0.330607 0.500000
vt 0.375000 0.544393
vt 0.625000 0.455607
vt 0.580607 0.500000
vt 0.580607 0.455607
vt 0.625000 0.044393
vt 0.541915 0.294393
vt 0.419393 0.294393
vt 0.419393 0.205607
vt 0.625000 0.294393
vt 0.580607 0.294393
vt 0.541915 0.544394
vt 0.419393 0.544393
vt 0.419393 0.455607
vt 0.541915 0.455607
vt 0.419393 0.705607
vt 0.580607 0.705607
vt 0.580607 0.544393
vt 0.541915 0.794394
vt 0.419393 0.794393
vt 0.541915 0.705607
vt 0.541915 0.544394
vt 0.548364 0.455607
vt 0.548364 0.294393
vt 0.541915 0.955607
vt 0.419393 0.955607
vt 0.419393 0.044393
vt 0.419393 0.000000
vt 0.541915 0.000000
vt 0.624971 0.205607
vt 0.580606 0.205607
vt 0.625000 0.455607
vt 0.625003 0.294354
s 0
f 25/1/1 5/2/1 11/3/1 30/4/1
f 20/5/2 9/6/2 4/7/2 15/8/2
f 1/9/3 2/10/3 3/11/3
f 6/12/4 7/13/4 8/14/4
f 9/15/5 10/16/5 11/3/5
f 12/17/6 13/18/6 14/19/6
f 17/20/7 18/21/7 19/22/7
f 20/23/8 21/24/8 22/25/8
f 6/12/9 1/9/9 3/11/9 7/13/9
f 4/26/10 9/15/10 11/3/10 5/2/10
f 26/27/11 8/28/11 7/29/11 30/4/11
f 9/30/12 20/23/12 22/25/12 10/31/12
f 27/32/13 19/33/13 18/34/13 31/35/13
f 12/17/14 17/20/14 19/33/14 13/36/14
f 20/5/15 15/8/15 16/37/15 21/38/15
f 28/39/16 14/40/16 13/36/16 32/41/16
f 1/9/17 12/17/17 14/19/17 2/10/17
f 6/12/18 17/20/18 12/17/18 1/9/18
f 21/38/19 27/42/19 24/43/19 22/25/19
f 10/31/20 23/44/20 30/4/20 11/3/20
f 26/27/21 23/44/21 24/43/21 31/35/21
f 14/40/22 28/39/22 29/45/22 2/46/22
f 19/33/23 27/32/23 32/41/23 13/36/23
f 3/47/1 25/1/1 30/4/1 7/29/1
f 8/28/24 26/27/24 31/35/24 18/34/24
f 2/48/25 29/49/25 25/1/25 3/47/25
f 27/32/26 31/35/26 24/43/26
f 23/44/27 26/27/27 30/4/27
f 22/25/24 24/43/24 23/44/24 10/31/24
f 4/50/28 5/51/28 35/16/28
f 15/52/29 38/25/29 16/24/29
f 4/53/30 35/31/30 38/25/30 15/52/30
f 33/9/31 34/10/31 37/19/31 36/17/31
f 27/42/23 21/38/23 16/37/23 32/41/23
f 16/38/32 38/25/32 40/43/32 32/41/32
f 35/31/33 5/51/33 25/4/33 39/44/33
f 41/27/34 42/35/34 40/43/34 39/44/34
f 39/44/35 25/4/35 41/27/35
f 38/25/22 35/31/22 39/44/22 40/43/22
f 32/41/36 40/43/36 42/35/36
