# Blender 4.4.3
# www.blender.org
o Sphere
v 0.000000 3.192087 -0.707107
v 0.000000 2.743799 -0.965926
v 0.000000 2.226161 -0.965926
v 0.000000 1.984980 -0.866025
v 0.129410 3.450906 -0.224144
v 0.250000 3.351006 -0.433013
v 0.353553 3.192087 -0.612372
v 0.433013 2.984980 -0.750000
v 0.482963 2.743799 -0.836516
v 0.500000 2.484980 -0.866025
v 0.482963 2.226161 -0.836516
v 0.433013 1.984980 -0.750000
v 0.353553 1.777874 -0.612372
v 0.250000 1.618955 -0.433013
v 0.129410 1.519055 -0.224144
v 0.224144 3.450906 -0.129410
v 0.433013 3.351006 -0.250000
v 0.612372 3.192087 -0.353553
v 0.750000 2.984980 -0.433013
v 0.836516 2.743799 -0.482963
v 0.866025 2.484980 -0.500000
v 0.836516 2.226161 -0.482963
v 0.750000 1.984980 -0.433013
v 0.612372 1.777874 -0.353553
v 0.433013 1.618955 -0.250000
v 0.224144 1.519055 -0.129410
v 0.258819 3.450906 0.000000
v 0.500000 3.351006 0.000000
v 0.707107 3.192087 0.000000
v 0.866025 2.984980 0.000000
v 0.965926 2.743799 0.000000
v 1.000000 2.484980 0.000000
v 0.965926 2.226161 0.000000
v 0.866025 1.984980 0.000000
v 0.707107 1.777874 0.000000
v 0.500000 1.618955 0.000000
v 0.258819 1.519055 0.000000
v 0.224144 3.450906 0.129410
v 0.433013 3.351006 0.250000
v 0.612372 3.192087 0.353553
v 0.750000 2.984980 0.433013
v 0.836516 2.743799 0.482963
v 0.866025 2.484980 0.500000
v 0.836516 2.226161 0.482963
v 0.750000 1.984980 0.433013
v 0.612372 1.777874 0.353553
v 0.433013 1.618955 0.250000
v 0.224144 1.519055 0.129410
v 0.129410 3.450906 0.224144
v 0.250000 3.351006 0.433013
v 0.353553 3.192087 0.612372
v 0.433013 2.984980 0.750000
v 0.482963 2.743799 0.836516
v 0.500000 2.484980 0.866025
v 0.482963 2.226161 0.836516
v 0.433013 1.984980 0.750000
v 0.353553 1.777874 0.612372
v 0.250000 1.618955 0.433013
v 0.129410 1.519055 0.224144
v 0.000000 3.450906 0.258819
v 0.000000 3.351006 0.500000
v -0.000000 3.192087 0.707107
v -0.000000 2.984980 0.866025
v -0.000000 2.743799 0.965926
v 0.000000 2.484980 1.000000
v -0.000000 2.226161 0.965926
v -0.000000 1.984980 0.866025
v -0.000000 1.777874 0.707107
v 0.000000 1.618955 0.500000
v 0.000000 1.519055 0.258819
v -0.129410 3.450906 0.224144
v -0.250000 3.351006 0.433013
v -0.353553 3.192087 0.612372
v -0.433013 2.984980 0.750000
v -0.482963 2.743799 0.836516
v -0.500000 2.484980 0.866025
v -0.482963 2.226161 0.836516
v -0.433013 1.984980 0.750000
v -0.353553 1.777874 0.612372
v -0.250000 1.618955 0.433013
v -0.129410 1.519055 0.224144
v -0.224144 3.450906 0.129410
v -0.433013 3.351006 0.250000
v -0.612372 3.192087 0.353553
v -0.750000 2.984980 0.433013
v -0.836516 2.743799 0.482963
v -0.866025 2.484980 0.500000
v -0.836516 2.226161 0.482963
v -0.750000 1.984980 0.433013
v -0.612372 1.777874 0.353553
v -0.433013 1.618955 0.250000
v -0.224144 1.519055 0.129410
v 0.000000 3.484980 0.000000
v -0.258819 3.450906 0.000000
v -0.500000 3.351006 0.000000
v -0.707107 3.192087 -0.000000
v -0.866025 2.984980 -0.000000
v -0.965926 2.743799 -0.000000
v -1.000000 2.484980 0.000000
v -0.965926 2.226161 -0.000000
v -0.866025 1.984980 -0.000000
v -0.707107 1.777874 -0.000000
v -0.500000 1.618955 0.000000
v -0.258819 1.519055 0.000000
v -0.224144 3.450906 -0.129410
v -0.433013 3.351006 -0.250000
v -0.612372 3.192087 -0.353553
v -0.750000 2.984980 -0.433013
v -0.836516 2.743799 -0.482963
v -0.866025 2.484980 -0.500000
v -0.836516 2.226161 -0.482963
v -0.750000 1.984980 -0.433013
v -0.612372 1.777874 -0.353553
v -0.433013 1.618955 -0.250000
v -0.224144 1.519055 -0.129410
v -0.129410 3.450906 -0.224144
v -0.250000 3.351006 -0.433013
v -0.353553 3.192087 -0.612372
v -0.433013 2.984980 -0.750000
v -0.482963 2.743799 -0.836516
v -0.500000 2.484980 -0.866025
v -0.482963 2.226161 -0.836516
v -0.433013 1.984980 -0.750000
v -0.353553 1.777874 -0.612372
v -0.250000 1.618955 -0.433013
v -0.129410 1.519055 -0.224144
v 0.000000 3.450906 -0.258819
v 0.000000 3.351006 -0.500000
v 0.000000 2.984980 -0.866025
v 0.000000 2.484980 -1.000000
v 0.000000 1.777874 -0.707107
v 0.000000 1.618955 -0.500000
v 0.000000 1.519055 -0.258819
v 0.000000 1.484980 0.000000
vn 0.0350 0.9908 -0.1304
vn 0.2403 -0.3715 -0.8968
vn 0.2403 0.3715 -0.8968
vn 0.0350 -0.9908 -0.1304
vn 0.1020 0.9191 -0.3807
vn 0.2079 -0.5955 -0.7760
vn 0.2568 0.1262 -0.9582
vn 0.1610 0.7830 -0.6008
vn 0.1610 -0.7830 -0.6008
vn 0.2568 -0.1262 -0.9582
vn 0.2079 0.5955 -0.7760
vn 0.1020 -0.9191 -0.3807
vn 0.7015 0.1262 -0.7015
vn 0.4398 0.7830 -0.4398
vn 0.4398 -0.7830 -0.4398
vn 0.7015 -0.1262 -0.7015
vn 0.5681 0.5955 -0.5681
vn 0.2787 -0.9191 -0.2787
vn 0.0955 0.9908 -0.0955
vn 0.6565 -0.3715 -0.6565
vn 0.6565 0.3715 -0.6565
vn 0.0955 -0.9908 -0.0955
vn 0.2787 0.9191 -0.2787
vn 0.5681 -0.5955 -0.5681
vn 0.8968 0.3715 -0.2403
vn 0.1304 -0.9908 -0.0350
vn 0.3807 0.9191 -0.1020
vn 0.7760 -0.5955 -0.2079
vn 0.9582 0.1262 -0.2568
vn 0.6008 0.7830 -0.1610
vn 0.6008 -0.7830 -0.1610
vn 0.9582 -0.1262 -0.2568
vn 0.7760 0.5955 -0.2079
vn 0.3807 -0.9191 -0.1020
vn 0.1304 0.9908 -0.0350
vn 0.8968 -0.3715 -0.2403
vn 0.9582 -0.1262 0.2568
vn 0.7760 0.5955 0.2079
vn 0.3807 -0.9191 0.1020
vn 0.1304 0.9908 0.0350
vn 0.8968 -0.3715 0.2403
vn 0.8968 0.3715 0.2403
vn 0.1304 -0.9908 0.0350
vn 0.3807 0.9191 0.1020
vn 0.7760 -0.5955 0.2079
vn 0.9582 0.1262 0.2568
vn 0.6008 0.7830 0.1610
vn 0.6008 -0.7830 0.1610
vn 0.7015 0.1262 0.7015
vn 0.4398 0.7830 0.4398
vn 0.4398 -0.7830 0.4398
vn 0.7015 -0.1262 0.7015
vn 0.5681 0.5955 0.5681
vn 0.2787 -0.9191 0.2787
vn 0.0955 0.9908 0.0955
vn 0.6565 -0.3715 0.6565
vn 0.6565 0.3715 0.6565
vn 0.0955 -0.9908 0.0955
vn 0.2787 0.9191 0.2787
vn 0.5681 -0.5955 0.5681
vn 0.2403 -0.3715 0.8968
vn 0.2403 0.3715 0.8968
vn 0.0350 -0.9908 0.1304
vn 0.1020 0.9191 0.3807
vn 0.2079 -0.5955 0.7760
vn 0.2568 0.1262 0.9582
vn 0.1610 0.7830 0.6008
vn 0.1610 -0.7830 0.6008
vn 0.2568 -0.1262 0.9582
vn 0.2079 0.5955 0.7760
vn 0.1020 -0.9191 0.3807
vn 0.0350 0.9908 0.1304
vn -0.2568 -0.1262 0.9582
vn -0.2079 0.5955 0.7760
vn -0.1020 -0.9191 0.3807
vn -0.0350 0.9908 0.1304
vn -0.2403 -0.3715 0.8968
vn -0.2403 0.3715 0.8968
vn -0.0350 -0.9908 0.1304
vn -0.1020 0.9191 0.3807
vn -0.2079 -0.5955 0.7760
vn -0.2568 0.1262 0.9582
vn -0.1610 0.7830 0.6008
vn -0.1610 -0.7830 0.6008
vn -0.5681 -0.5955 0.5681
vn -0.7015 0.1262 0.7015
vn -0.4398 0.7830 0.4398
vn -0.4398 -0.7830 0.4398
vn -0.7015 -0.1262 0.7015
vn -0.5681 0.5955 0.5681
vn -0.2787 -0.9191 0.2787
vn -0.0955 0.9908 0.0955
vn -0.6565 -0.3715 0.6565
vn -0.6565 0.3715 0.6565
vn -0.0955 -0.9908 0.0955
vn -0.2787 0.9191 0.2787
vn -0.1304 0.9908 0.0350
vn -0.8968 -0.3715 0.2403
vn -0.8968 0.3715 0.2403
vn -0.1304 -0.9908 0.0350
vn -0.3807 0.9191 0.1020
vn -0.7760 -0.5955 0.2079
vn -0.9582 0.1262 0.2568
vn -0.6008 0.7830 0.1610
vn -0.6008 -0.7830 0.1610
vn -0.9582 -0.1262 0.2568
vn -0.7760 0.5955 0.2079
vn -0.3807 -0.9191 0.1020
vn -0.6008 -0.7830 -0.1610
vn -0.9582 -0.1262 -0.2568
vn -0.7760 0.5955 -0.2079
vn -0.3807 -0.9191 -0.1020
vn -0.1304 0.9908 -0.0350
vn -0.8968 -0.3715 -0.2403
vn -0.8968 0.3715 -0.2403
vn -0.1304 -0.9908 -0.0350
vn -0.3807 0.9191 -0.1020
vn -0.7760 -0.5955 -0.2079
vn -0.9582 0.1262 -0.2568
vn -0.6008 0.7830 -0.1610
vn -0.2787 0.9191 -0.2787
vn -0.5681 -0.5955 -0.5681
vn -0.7015 0.1262 -0.7015
vn -0.4398 0.7830 -0.4398
vn -0.4398 -0.7830 -0.4398
vn -0.7015 -0.1262 -0.7015
vn -0.5681 0.5955 -0.5681
vn -0.2787 -0.9191 -0.2787
vn -0.0955 0.9908 -0.0955
vn -0.6565 -0.3715 -0.6565
vn -0.6565 0.3715 -0.6565
vn -0.0955 -0.9908 -0.0955
vn -0.1020 -0.9191 -0.3807
vn -0.0350 0.9908 -0.1304
vn -0.2403 -0.3715 -0.8968
vn -0.2403 0.3715 -0.8968
vn -0.0350 -0.9908 -0.1304
vn -0.1020 0.9191 -0.3807
vn -0.2079 -0.5955 -0.7760
vn -0.2568 0.1262 -0.9582
vn -0.1610 0.7830 -0.6008
vn -0.1610 -0.7830 -0.6008
vn -0.2568 -0.1262 -0.9582
vn -0.2079 0.5955 -0.7760
vt 0.750000 0.916667
vt 0.708333 1.000000
vt 0.666667 0.916667
vt 0.750000 0.333333
vt 0.750000 0.416667
vt 0.666667 0.416667
vt 0.666667 0.333333
vt 0.750000 0.583333
vt 0.750000 0.666667
vt 0.666667 0.666667
vt 0.666667 0.583333
vt 0.708333 0.000000
vt 0.750000 0.083333
vt 0.666667 0.083333
vt 0.750000 0.833333
vt 0.666667 0.833333
vt 0.750000 0.250000
vt 0.666667 0.250000
vt 0.750000 0.500000
vt 0.666667 0.500000
vt 0.750000 0.750000
vt 0.666667 0.750000
vt 0.750000 0.166667
vt 0.666667 0.166667
vt 0.583333 0.583333
vt 0.583333 0.500000
vt 0.583333 0.833333
vt 0.583333 0.750000
vt 0.583333 0.250000
vt 0.583333 0.166667
vt 0.583333 0.416667
vt 0.583333 0.666667
vt 0.583333 0.083333
vt 0.625000 1.000000
vt 0.583333 0.916667
vt 0.583333 0.333333
vt 0.625000 0.000000
vt 0.500000 0.666667
vt 0.500000 0.583333
vt 0.541667 0.000000
vt 0.500000 0.083333
vt 0.500000 0.916667
vt 0.500000 0.833333
vt 0.500000 0.333333
vt 0.500000 0.250000
vt 0.500000 0.500000
vt 0.500000 0.750000
vt 0.500000 0.166667
vt 0.500000 0.416667
vt 0.541667 1.000000
vt 0.416667 0.500000
vt 0.416667 0.416667
vt 0.416667 0.750000
vt 0.416667 0.666667
vt 0.416667 0.166667
vt 0.416667 0.083333
vt 0.458333 1.000000
vt 0.416667 0.916667
vt 0.416667 0.333333
vt 0.416667 0.583333
vt 0.458333 0.000000
vt 0.416667 0.833333
vt 0.416667 0.250000
vt 0.333333 0.583333
vt 0.333333 0.500000
vt 0.333333 0.833333
vt 0.333333 0.750000
vt 0.333333 0.250000
vt 0.333333 0.166667
vt 0.333333 0.416667
vt 0.333333 0.666667
vt 0.333333 0.083333
vt 0.375000 1.000000
vt 0.333333 0.916667
vt 0.333333 0.333333
vt 0.375000 0.000000
vt 0.250000 0.416667
vt 0.250000 0.333333
vt 0.250000 0.666667
vt 0.250000 0.583333
vt 0.291667 0.000000
vt 0.250000 0.083333
vt 0.250000 0.916667
vt 0.250000 0.833333
vt 0.250000 0.250000
vt 0.250000 0.500000
vt 0.250000 0.750000
vt 0.250000 0.166667
vt 0.291667 1.000000
vt 0.166667 0.500000
vt 0.166667 0.416667
vt 0.166667 0.750000
vt 0.166667 0.666667
vt 0.166667 0.166667
vt 0.166667 0.083333
vt 0.208333 1.000000
vt 0.166667 0.916667
vt 0.166667 0.333333
vt 0.166667 0.583333
vt 0.208333 0.000000
vt 0.166667 0.833333
vt 0.166667 0.250000
vt 0.083333 0.333333
vt 0.083333 0.250000
vt 0.083333 0.583333
vt 0.083333 0.500000
vt 0.083333 0.833333
vt 0.083333 0.750000
vt 0.083333 0.166667
vt 0.083333 0.416667
vt 0.083333 0.666667
vt 0.083333 0.083333
vt 0.125000 1.000000
vt 0.083333 0.916667
vt 0.125000 0.000000
vt 0.041667 1.000000
vt 0.000000 0.916667
vt 0.000000 0.416667
vt 0.000000 0.333333
vt 0.000000 0.666667
vt 0.000000 0.583333
vt 0.041667 0.000000
vt 0.000000 0.083333
vt 0.000000 0.833333
vt 0.000000 0.250000
vt 0.000000 0.500000
vt 0.000000 0.750000
vt 0.000000 0.166667
vt 1.000000 0.166667
vt 1.000000 0.250000
vt 0.916667 0.250000
vt 0.916667 0.166667
vt 1.000000 0.416667
vt 1.000000 0.500000
vt 0.916667 0.500000
vt 0.916667 0.416667
vt 1.000000 0.666667
vt 1.000000 0.750000
vt 0.916667 0.750000
vt 0.916667 0.666667
vt 1.000000 0.083333
vt 0.916667 0.083333
vt 1.000000 0.916667
vt 0.958333 1.000000
vt 0.916667 0.916667
vt 1.000000 0.333333
vt 0.916667 0.333333
vt 1.000000 0.583333
vt 0.916667 0.583333
vt 0.958333 0.000000
vt 1.000000 0.833333
vt 0.916667 0.833333
vt 0.833333 0.916667
vt 0.833333 0.833333
vt 0.833333 0.333333
vt 0.833333 0.250000
vt 0.833333 0.583333
vt 0.833333 0.500000
vt 0.833333 0.750000
vt 0.833333 0.166667
vt 0.833333 0.416667
vt 0.833333 0.666667
vt 0.833333 0.083333
vt 0.875000 1.000000
vt 0.875000 0.000000
vt 0.791667 1.000000
vt 0.791667 0.000000
s 0
f 127/1/1 93/2/1 5/3/1
f 4/4/2 3/5/2 11/6/2 12/7/2
f 2/8/3 129/9/3 8/10/3 9/11/3
f 134/12/4 133/13/4 15/14/4
f 128/15/5 127/1/5 5/3/5 6/16/5
f 131/17/6 4/4/6 12/7/6 13/18/6
f 130/19/7 2/8/7 9/11/7 10/20/7
f 1/21/8 128/15/8 6/16/8 7/22/8
f 132/23/9 131/17/9 13/18/9 14/24/9
f 3/5/10 130/19/10 10/20/10 11/6/10
f 129/9/11 1/21/11 7/22/11 8/10/11
f 133/13/12 132/23/12 14/24/12 15/14/12
f 10/20/13 9/11/13 20/25/13 21/26/13
f 7/22/14 6/16/14 17/27/14 18/28/14
f 14/24/15 13/18/15 24/29/15 25/30/15
f 11/6/16 10/20/16 21/26/16 22/31/16
f 8/10/17 7/22/17 18/28/17 19/32/17
f 15/14/18 14/24/18 25/30/18 26/33/18
f 5/3/19 93/34/19 16/35/19
f 12/7/20 11/6/20 22/31/20 23/36/20
f 9/11/21 8/10/21 19/32/21 20/25/21
f 134/37/22 15/14/22 26/33/22
f 6/16/23 5/3/23 16/35/23 17/27/23
f 13/18/24 12/7/24 23/36/24 24/29/24
f 20/25/25 19/32/25 30/38/25 31/39/25
f 134/40/26 26/33/26 37/41/26
f 17/27/27 16/35/27 27/42/27 28/43/27
f 24/29/28 23/36/28 34/44/28 35/45/28
f 21/26/29 20/25/29 31/39/29 32/46/29
f 18/28/30 17/27/30 28/43/30 29/47/30
f 25/30/31 24/29/31 35/45/31 36/48/31
f 22/31/32 21/26/32 32/46/32 33/49/32
f 19/32/33 18/28/33 29/47/33 30/38/33
f 26/33/34 25/30/34 36/48/34 37/41/34
f 16/35/35 93/50/35 27/42/35
f 23/36/36 22/31/36 33/49/36 34/44/36
f 33/49/37 32/46/37 43/51/37 44/52/37
f 30/38/38 29/47/38 40/53/38 41/54/38
f 37/41/39 36/48/39 47/55/39 48/56/39
f 27/42/40 93/57/40 38/58/40
f 34/44/41 33/49/41 44/52/41 45/59/41
f 31/39/42 30/38/42 41/54/42 42/60/42
f 134/61/43 37/41/43 48/56/43
f 28/43/44 27/42/44 38/58/44 39/62/44
f 35/45/45 34/44/45 45/59/45 46/63/45
f 32/46/46 31/39/46 42/60/46 43/51/46
f 29/47/47 28/43/47 39/62/47 40/53/47
f 36/48/48 35/45/48 46/63/48 47/55/48
f 43/51/49 42/60/49 53/64/49 54/65/49
f 40/53/50 39/62/50 50/66/50 51/67/50
f 47/55/51 46/63/51 57/68/51 58/69/51
f 44/52/52 43/51/52 54/65/52 55/70/52
f 41/54/53 40/53/53 51/67/53 52/71/53
f 48/56/54 47/55/54 58/69/54 59/72/54
f 38/58/55 93/73/55 49/74/55
f 45/59/56 44/52/56 55/70/56 56/75/56
f 42/60/57 41/54/57 52/71/57 53/64/57
f 134/76/58 48/56/58 59/72/58
f 39/62/59 38/58/59 49/74/59 50/66/59
f 46/63/60 45/59/60 56/75/60 57/68/60
f 56/75/61 55/70/61 66/77/61 67/78/61
f 53/64/62 52/71/62 63/79/62 64/80/62
f 134/81/63 59/72/63 70/82/63
f 50/66/64 49/74/64 60/83/64 61/84/64
f 57/68/65 56/75/65 67/78/65 68/85/65
f 54/65/66 53/64/66 64/80/66 65/86/66
f 51/67/67 50/66/67 61/84/67 62/87/67
f 58/69/68 57/68/68 68/85/68 69/88/68
f 55/70/69 54/65/69 65/86/69 66/77/69
f 52/71/70 51/67/70 62/87/70 63/79/70
f 59/72/71 58/69/71 69/88/71 70/82/71
f 49/74/72 93/89/72 60/83/72
f 66/77/73 65/86/73 76/90/73 77/91/73
f 63/79/74 62/87/74 73/92/74 74/93/74
f 70/82/75 69/88/75 80/94/75 81/95/75
f 60/83/76 93/96/76 71/97/76
f 67/78/77 66/77/77 77/91/77 78/98/77
f 64/80/78 63/79/78 74/93/78 75/99/78
f 134/100/79 70/82/79 81/95/79
f 61/84/80 60/83/80 71/97/80 72/101/80
f 68/85/81 67/78/81 78/98/81 79/102/81
f 65/86/82 64/80/82 75/99/82 76/90/82
f 62/87/83 61/84/83 72/101/83 73/92/83
f 69/88/84 68/85/84 79/102/84 80/94/84
f 79/102/85 78/98/85 89/103/85 90/104/85
f 76/90/86 75/99/86 86/105/86 87/106/86
f 73/92/87 72/101/87 83/107/87 84/108/87
f 80/94/88 79/102/88 90/104/88 91/109/88
f 77/91/89 76/90/89 87/106/89 88/110/89
f 74/93/90 73/92/90 84/108/90 85/111/90
f 81/95/91 80/94/91 91/109/91 92/112/91
f 71/97/92 93/113/92 82/114/92
f 78/98/93 77/91/93 88/110/93 89/103/93
f 75/99/94 74/93/94 85/111/94 86/105/94
f 134/115/95 81/95/95 92/112/95
f 72/101/96 71/97/96 82/114/96 83/107/96
f 82/114/97 93/116/97 94/117/97
f 89/103/98 88/110/98 100/118/98 101/119/98
f 86/105/99 85/111/99 97/120/99 98/121/99
f 134/122/100 92/112/100 104/123/100
f 83/107/101 82/114/101 94/117/101 95/124/101
f 90/104/102 89/103/102 101/119/102 102/125/102
f 87/106/103 86/105/103 98/121/103 99/126/103
f 84/108/104 83/107/104 95/124/104 96/127/104
f 91/109/105 90/104/105 102/125/105 103/128/105
f 88/110/106 87/106/106 99/126/106 100/118/106
f 85/111/107 84/108/107 96/127/107 97/120/107
f 92/112/108 91/109/108 103/128/108 104/123/108
f 103/129/109 102/130/109 113/131/109 114/132/109
f 100/133/110 99/134/110 110/135/110 111/136/110
f 97/137/111 96/138/111 107/139/111 108/140/111
f 104/141/112 103/129/112 114/132/112 115/142/112
f 94/143/113 93/144/113 105/145/113
f 101/146/114 100/133/114 111/136/114 112/147/114
f 98/148/115 97/137/115 108/140/115 109/149/115
f 134/150/116 104/141/116 115/142/116
f 95/151/117 94/143/117 105/145/117 106/152/117
f 102/130/118 101/146/118 112/147/118 113/131/118
f 99/134/119 98/148/119 109/149/119 110/135/119
f 96/138/120 95/151/120 106/152/120 107/139/120
f 106/152/121 105/145/121 116/153/121 117/154/121
f 113/131/122 112/147/122 123/155/122 124/156/122
f 110/135/123 109/149/123 120/157/123 121/158/123
f 107/139/124 106/152/124 117/154/124 118/159/124
f 114/132/125 113/131/125 124/156/125 125/160/125
f 111/136/126 110/135/126 121/158/126 122/161/126
f 108/140/127 107/139/127 118/159/127 119/162/127
f 115/142/128 114/132/128 125/160/128 126/163/128
f 105/145/129 93/164/129 116/153/129
f 112/147/130 111/136/130 122/161/130 123/155/130
f 109/149/131 108/140/131 119/162/131 120/157/131
f 134/165/132 115/142/132 126/163/132
f 126/163/133 125/160/133 132/23/133 133/13/133
f 116/153/134 93/166/134 127/1/134
f 123/155/135 122/161/135 3/5/135 4/4/135
f 120/157/136 119/162/136 129/9/136 2/8/136
f 134/167/137 126/163/137 133/13/137
f 117/154/138 116/153/138 127/1/138 128/15/138
f 124/156/139 123/155/139 4/4/139 131/17/139
f 121/158/140 120/157/140 2/8/140 130/19/140
f 118/159/141 117/154/141 128/15/141 1/21/141
f 125/160/142 124/156/142 131/17/142 132/23/142
f 122/161/143 121/158/143 130/19/143 3/5/143
f 119/162/144 118/159/144 1/21/144 129/9/144
