# Blender 4.4.3
# www.blender.org
o Cube
v -8.117199 -0.100000 8.117199
v -8.117199 0.100000 8.117199
v -8.117199 -0.100000 -8.117199
v -8.117199 0.100000 -8.117199
v 8.117199 -0.100000 8.117199
v 8.117199 0.100000 8.117199
v 8.117199 -0.100000 -8.117199
v 8.117199 0.100000 -8.117199
v -8.200000 -0.100000 -8.200000
v -8.200000 -0.100000 8.200000
v -8.200000 0.100000 8.200000
v -8.200000 0.100000 -8.200000
v 8.200000 -0.100000 -8.200000
v 8.200000 0.100000 -8.200000
v 8.200000 -0.100000 8.200000
v 8.200000 0.100000 8.200000
vn -1.0000 -0.0000 -0.0000
vn -0.0000 -0.0000 -1.0000
vn 1.0000 -0.0000 -0.0000
vn -0.0000 -0.0000 1.0000
vn -0.0000 -1.0000 -0.0000
vn -0.0000 1.0000 -0.0000
vt 0.375000 0.000000
vt 0.625000 0.000000
vt 0.625000 0.250000
vt 0.375000 0.250000
vt 0.625000 0.500000
vt 0.375000 0.500000
vt 0.625000 0.750000
vt 0.375000 0.750000
vt 0.625000 1.000000
vt 0.375000 1.000000
vt 0.626262 0.748738
vt 0.626262 0.501262
vt 0.373738 0.501262
vt 0.373738 0.748738
vt 0.873738 0.748738
vt 0.126262 0.748738
vt 0.126262 0.501262
vt 0.125000 0.750000
vt 0.125000 0.500000
vt 0.873738 0.501262
vt 0.875000 0.500000
vt 0.875000 0.750000
s 0
f 10/1/1 11/2/1 12/3/1 9/4/1
f 9/4/2 12/3/2 14/5/2 13/6/2
f 13/6/3 14/5/3 16/7/3 15/8/3
f 15/8/4 16/7/4 11/9/4 10/10/4
f 6/11/1 8/12/1 7/13/1 5/14/1
f 2/15/2 6/11/2 5/14/2 1/16/2
f 3/17/5 1/16/5 10/18/5 9/19/5
f 2/15/6 4/20/6 12/21/6 11/22/6
f 7/13/5 3/17/5 9/19/5 13/6/5
f 4/20/6 8/12/6 14/5/6 12/21/6
f 5/14/5 7/13/5 13/6/5 15/8/5
f 8/12/6 6/11/6 16/7/6 14/5/6
f 1/16/5 5/14/5 15/8/5 10/18/5
f 6/11/6 2/15/6 11/22/6 16/7/6
f 8/12/4 4/20/4 3/17/4 7/13/4
f 4/20/3 2/15/3 1/16/3 3/17/3
