# Blender 4.5.1 LTS
# www.blender.org
o Plane
v 4.000000 0.161360 -0.009504
v 4.000000 0.275887 -0.036081
v 4.000000 0.399985 -0.087460
v 4.000000 0.540947 -0.166355
v 4.000000 0.686856 -0.282821
v 4.000000 0.816624 -0.436872
v 4.000000 0.916203 -0.608221
v 4.000000 0.979376 -0.760687
v 4.000000 1.003373 -0.892149
v 4.000000 1.001757 -1.012646
v -4.000000 0.161360 -0.009504
v -4.000000 0.275887 -0.036081
v -4.000000 0.399985 -0.087460
v -4.000000 0.540947 -0.166355
v -4.000000 0.686856 -0.282821
v -4.000000 0.816624 -0.436872
v -4.000000 0.916203 -0.608221
v -4.000000 0.979376 -0.760687
v -4.000000 1.003373 -0.892149
v -4.000000 1.001757 -1.012646
v -4.000000 -36.000000 -0.000001
v 4.000000 -36.000000 -0.000001
v -4.000000 0.053188 0.000001
v 4.000000 0.053188 0.000001
vn -0.0000 0.1572 0.9876
vn -0.0000 0.3053 0.9522
vn -0.0000 0.4362 0.8998
vn -0.0000 0.5580 0.8299
vn -0.0000 0.6977 0.7164
vn -0.0000 0.8178 0.5755
vn -0.0000 0.8962 0.4436
vn -0.0000 0.9592 0.2828
vn -0.0000 0.9965 0.0835
vn -0.0000 0.9999 -0.0134
vn -0.0000 -0.0000 1.0000
vn -0.0000 0.0438 0.9990
vt 0.053240 0.999977
vt 0.000023 0.999977
vt 0.000023 0.996770
vt 0.053240 0.996770
vt 0.000023 0.993215
vt 0.053240 0.993215
vt 0.000023 0.988823
vt 0.053240 0.988823
vt 0.000023 0.983550
vt 0.053240 0.983550
vt 0.000023 0.978191
vt 0.053240 0.978191
vt 0.000023 0.973223
vt 0.053240 0.973223
vt 0.000023 0.968925
vt 0.053240 0.968925
vt 0.000023 0.965351
vt 0.053240 0.965351
vt 0.000023 0.962223
vt 0.053240 0.962223
vt 0.000023 0.959333
vt 0.053240 0.959333
vt 0.000023 0.000023
vt 0.053239 0.000023
s 1
f 10/1/10 20/2/10 19/3/9 9/4/9
f 9/4/9 19/3/9 18/5/8 8/6/8
f 8/6/8 18/5/8 17/7/7 7/8/7
f 7/8/7 17/7/7 16/9/6 6/10/6
f 6/10/6 16/9/6 15/11/5 5/12/5
f 5/12/5 15/11/5 14/13/4 4/14/4
f 4/14/4 14/13/4 13/15/3 3/16/3
f 3/16/3 13/15/3 12/17/2 2/18/2
f 2/18/2 12/17/2 11/19/1 1/20/1
f 23/21/12 24/22/12 1/20/1 11/19/1
f 21/23/11 22/24/11 24/22/12 23/21/12
