# Blender 4.5.0
# www.blender.org
o LeftLightGlass
v 0.121387 -0.000000 -0.106601
v 0.094439 -0.000000 -0.159539
v 0.135970 -0.007303 -0.036714
v 0.130412 -0.014325 -0.072017
v 0.121387 -0.020797 -0.104553
v 0.109240 -0.026469 -0.133070
v 0.094439 -0.031125 -0.156474
v 0.077554 -0.034584 -0.173865
v 0.135970 -0.014325 -0.034584
v 0.130412 -0.028100 -0.067839
v 0.121387 -0.040794 -0.098486
v 0.109240 -0.051921 -0.125349
v 0.094439 -0.061053 -0.147395
v 0.077554 -0.067839 -0.163777
v 0.135970 -0.020797 -0.031125
v 0.130412 -0.040794 -0.061053
v 0.121387 -0.059224 -0.088635
v 0.109240 -0.075378 -0.112811
v 0.094439 -0.088635 -0.132652
v 0.077554 -0.098486 -0.147395
v 0.135970 -0.026469 -0.026469
v 0.130412 -0.051921 -0.051921
v 0.121387 -0.075378 -0.075378
v 0.109240 -0.095938 -0.095938
v 0.094439 -0.112811 -0.112811
v 0.077554 -0.125349 -0.125349
v 0.135970 -0.031125 -0.020797
v 0.130412 -0.061053 -0.040794
v 0.121387 -0.088635 -0.059224
v 0.109240 -0.112811 -0.075378
v 0.094439 -0.132652 -0.088635
v 0.077554 -0.147395 -0.098486
v 0.137847 -0.000000 -0.000000
v 0.135970 -0.034584 -0.014325
v 0.130412 -0.067839 -0.028100
v 0.121387 -0.098486 -0.040794
v 0.109240 -0.125349 -0.051921
v 0.094439 -0.147395 -0.061053
v 0.077554 -0.163777 -0.067839
v 0.135970 -0.036714 -0.007303
v 0.130412 -0.072017 -0.014325
v 0.121387 -0.104553 -0.020797
v 0.109240 -0.133070 -0.026469
v 0.094439 -0.156474 -0.031125
v 0.077554 -0.173864 -0.034584
v 0.135970 -0.037433 -0.000000
v 0.130412 -0.073428 -0.000000
v 0.121387 -0.106601 -0.000000
v 0.109240 -0.135677 -0.000000
v 0.094439 -0.159539 -0.000000
v 0.077554 -0.177271 -0.000000
v 0.135970 -0.036714 0.007303
v 0.130412 -0.072017 0.014325
v 0.121387 -0.104553 0.020797
v 0.109240 -0.133070 0.026469
v 0.094439 -0.156474 0.031125
v 0.077554 -0.173864 0.034584
v 0.135970 -0.034584 0.014325
v 0.130412 -0.067839 0.028100
v 0.121387 -0.098486 0.040794
v 0.109240 -0.125349 0.051921
v 0.094439 -0.147395 0.061053
v 0.077554 -0.163777 0.067839
v 0.135970 -0.031125 0.020797
v 0.130412 -0.061053 0.040794
v 0.121387 -0.088635 0.059224
v 0.109240 -0.112811 0.075378
v 0.094439 -0.132652 0.088635
v 0.077554 -0.147395 0.098486
v 0.135970 -0.026469 0.026469
v 0.130412 -0.051921 0.051921
v 0.121387 -0.075378 0.075378
v 0.109240 -0.095938 0.095938
v 0.094439 -0.112811 0.112811
v 0.077554 -0.125349 0.125349
v 0.135970 -0.020797 0.031125
v 0.130412 -0.040794 0.061053
v 0.121387 -0.059224 0.088635
v 0.109240 -0.075378 0.112811
v 0.094439 -0.088635 0.132652
v 0.077554 -0.098486 0.147395
v 0.135970 -0.014325 0.034584
v 0.130412 -0.028100 0.067839
v 0.121387 -0.040794 0.098486
v 0.109240 -0.051921 0.125349
v 0.094439 -0.061053 0.147395
v 0.077554 -0.067839 0.163777
v 0.135970 -0.007303 0.036714
v 0.130412 -0.014325 0.072017
v 0.121387 -0.020797 0.104552
v 0.109240 -0.026469 0.133070
v 0.094439 -0.031125 0.156474
v 0.077554 -0.034584 0.173864
v 0.135970 -0.000000 0.037433
v 0.130412 -0.000000 0.073428
v 0.121387 0.000000 0.106601
v 0.109240 -0.000000 0.135677
v 0.094439 0.000000 0.159539
v 0.077554 -0.000000 0.177271
v 0.135970 0.007303 0.036714
v 0.130412 0.014325 0.072017
v 0.121387 0.020797 0.104552
v 0.109240 0.026469 0.133070
v 0.094439 0.031125 0.156474
v 0.077554 0.034584 0.173864
v 0.135970 0.014325 0.034584
v 0.130412 0.028100 0.067839
v 0.121387 0.040794 0.098486
v 0.109240 0.051921 0.125349
v 0.094439 0.061053 0.147395
v 0.077554 0.067839 0.163777
v 0.135970 0.020797 0.031125
v 0.130412 0.040794 0.061053
v 0.121387 0.059224 0.088635
v 0.109240 0.075378 0.112811
v 0.094439 0.088635 0.132652
v 0.077554 0.098486 0.147395
v 0.135970 0.026469 0.026469
v 0.130412 0.051921 0.051921
v 0.121387 0.075378 0.075378
v 0.109240 0.095938 0.095938
v 0.094439 0.112811 0.112811
v 0.077554 0.125349 0.125349
v 0.135970 0.031125 0.020797
v 0.130412 0.061053 0.040794
v 0.121387 0.088635 0.059224
v 0.109240 0.112811 0.075378
v 0.094439 0.132652 0.088635
v 0.077554 0.147395 0.098486
v 0.135970 0.034584 0.014325
v 0.130412 0.067839 0.028100
v 0.121387 0.098486 0.040794
v 0.109240 0.125349 0.051921
v 0.094439 0.147395 0.061053
v 0.077554 0.163777 0.067839
v 0.135970 0.036714 0.007303
v 0.130412 0.072017 0.014325
v 0.121387 0.104552 0.020797
v 0.109240 0.133070 0.026469
v 0.094439 0.156474 0.031125
v 0.077554 0.173864 0.034584
v 0.135970 0.037433 -0.000000
v 0.130412 0.073428 -0.000000
v 0.121387 0.106601 -0.000000
v 0.109240 0.135677 -0.000000
v 0.094439 0.159539 -0.000000
v 0.077554 0.177271 -0.000000
v 0.135970 0.036714 -0.007303
v 0.130412 0.072017 -0.014325
v 0.121387 0.104552 -0.020797
v 0.109240 0.133070 -0.026469
v 0.094439 0.156474 -0.031125
v 0.077554 0.173864 -0.034584
v 0.135970 0.034584 -0.014325
v 0.130412 0.067839 -0.028100
v 0.121387 0.098486 -0.040794
v 0.109240 0.125349 -0.051921
v 0.094439 0.147395 -0.061053
v 0.077554 0.163777 -0.067839
v 0.135970 0.031125 -0.020797
v 0.130412 0.061053 -0.040794
v 0.121387 0.088635 -0.059224
v 0.109240 0.112811 -0.075378
v 0.094439 0.132652 -0.088635
v 0.077554 0.147395 -0.098486
v 0.135970 0.026469 -0.026469
v 0.130412 0.051921 -0.051921
v 0.121387 0.075378 -0.075378
v 0.109240 0.095938 -0.095938
v 0.094439 0.112811 -0.112811
v 0.077554 0.125349 -0.125349
v 0.135970 0.020797 -0.031125
v 0.130412 0.040794 -0.061053
v 0.121387 0.059224 -0.088635
v 0.109240 0.075378 -0.112811
v 0.094439 0.088635 -0.132652
v 0.077554 0.098486 -0.147395
v 0.135970 0.014325 -0.034584
v 0.130412 0.028100 -0.067839
v 0.121387 0.040794 -0.098486
v 0.109240 0.051921 -0.125349
v 0.094439 0.061053 -0.147395
v 0.077554 0.067839 -0.163777
v 0.135970 0.007303 -0.036714
v 0.130412 0.014325 -0.072017
v 0.121387 0.020797 -0.104552
v 0.109240 0.026469 -0.133070
v 0.094439 0.031125 -0.156474
v 0.077554 0.034584 -0.173864
v 0.135970 -0.000000 -0.037433
v 0.130412 -0.000000 -0.073428
v 0.109240 -0.000000 -0.135677
v 0.077554 -0.000000 -0.177271
vn 0.7225 -0.0678 -0.6880
vn 0.9987 -0.0049 -0.0501
vn 0.9882 -0.0150 -0.1526
vn 0.9646 -0.0258 -0.2624
vn 0.9221 -0.0379 -0.3852
vn 0.8487 -0.0518 -0.5264
vn 0.8487 -0.1535 -0.5062
vn 0.7225 -0.2007 -0.6616
vn 0.9987 -0.0146 -0.0481
vn 0.9882 -0.0445 -0.1467
vn 0.9646 -0.0766 -0.2524
vn 0.9221 -0.1124 -0.3704
vn 0.9987 -0.0237 -0.0444
vn 0.9882 -0.0723 -0.1352
vn 0.9646 -0.1243 -0.2326
vn 0.9221 -0.1825 -0.3413
vn 0.8487 -0.2493 -0.4665
vn 0.7225 -0.3259 -0.6097
vn 0.8487 -0.3356 -0.4089
vn 0.7225 -0.4386 -0.5344
vn 0.9987 -0.0319 -0.0389
vn 0.9882 -0.0973 -0.1185
vn 0.9646 -0.1673 -0.2039
vn 0.9221 -0.2455 -0.2992
vn 0.9882 -0.1185 -0.0973
vn 0.9646 -0.2039 -0.1673
vn 0.9221 -0.2992 -0.2455
vn 0.8487 -0.4089 -0.3356
vn 0.7225 -0.5344 -0.4386
vn 0.9987 -0.0389 -0.0319
vn 0.7225 -0.6097 -0.3259
vn 0.9987 -0.0444 -0.0237
vn 0.9882 -0.1352 -0.0723
vn 0.9646 -0.2326 -0.1243
vn 0.9221 -0.3413 -0.1825
vn 0.8487 -0.4665 -0.2493
vn 0.9646 -0.2524 -0.0766
vn 0.9221 -0.3704 -0.1124
vn 0.8487 -0.5062 -0.1535
vn 0.7225 -0.6616 -0.2007
vn 0.9987 -0.0481 -0.0146
vn 0.9882 -0.1467 -0.0445
vn 0.9987 -0.0501 -0.0049
vn 0.9882 -0.1526 -0.0150
vn 0.9646 -0.2624 -0.0258
vn 0.9221 -0.3852 -0.0379
vn 0.8487 -0.5264 -0.0518
vn 0.7225 -0.6880 -0.0678
vn 0.9646 -0.2624 0.0258
vn 0.9221 -0.3852 0.0379
vn 0.8487 -0.5264 0.0518
vn 0.7225 -0.6880 0.0678
vn 0.9987 -0.0501 0.0049
vn 0.9882 -0.1526 0.0150
vn 0.9987 -0.0481 0.0146
vn 0.9882 -0.1467 0.0445
vn 0.9646 -0.2524 0.0766
vn 0.9221 -0.3704 0.1124
vn 0.8487 -0.5062 0.1535
vn 0.7225 -0.6616 0.2007
vn 0.9221 -0.3413 0.1825
vn 0.8487 -0.4665 0.2493
vn 0.7225 -0.6097 0.3259
vn 0.9987 -0.0444 0.0237
vn 0.9882 -0.1352 0.0723
vn 0.9646 -0.2326 0.1243
vn 0.9987 -0.0389 0.0319
vn 0.9882 -0.1185 0.0973
vn 0.9646 -0.2039 0.1673
vn 0.9221 -0.2992 0.2455
vn 0.8487 -0.4089 0.3356
vn 0.7225 -0.5344 0.4386
vn 0.9221 -0.2455 0.2992
vn 0.8487 -0.3356 0.4089
vn 0.7225 -0.4386 0.5344
vn 0.9987 -0.0319 0.0389
vn 0.9882 -0.0973 0.1185
vn 0.9646 -0.1673 0.2039
vn 0.9987 -0.0237 0.0444
vn 0.9882 -0.0723 0.1352
vn 0.9646 -0.1243 0.2326
vn 0.9221 -0.1825 0.3413
vn 0.8487 -0.2493 0.4665
vn 0.7225 -0.3259 0.6097
vn 0.8487 -0.1535 0.5062
vn 0.7225 -0.2007 0.6616
vn 0.9987 -0.0146 0.0481
vn 0.9882 -0.0445 0.1467
vn 0.9646 -0.0766 0.2524
vn 0.9221 -0.1124 0.3704
vn 0.9882 -0.0150 0.1526
vn 0.9646 -0.0258 0.2624
vn 0.9221 -0.0379 0.3852
vn 0.8487 -0.0518 0.5264
vn 0.7225 -0.0678 0.6880
vn 0.9987 -0.0049 0.0501
vn 0.7225 0.0678 0.6880
vn 0.9987 0.0049 0.0501
vn 0.9882 0.0150 0.1526
vn 0.9646 0.0258 0.2624
vn 0.9221 0.0379 0.3852
vn 0.8487 0.0518 0.5264
vn 0.9882 0.0445 0.1467
vn 0.9646 0.0766 0.2524
vn 0.9221 0.1124 0.3704
vn 0.8487 0.1535 0.5062
vn 0.7225 0.2007 0.6616
vn 0.9987 0.0146 0.0481
vn 0.7225 0.3259 0.6097
vn 0.9987 0.0237 0.0444
vn 0.9882 0.0723 0.1352
vn 0.9646 0.1243 0.2326
vn 0.9221 0.1825 0.3413
vn 0.8487 0.2493 0.4665
vn 0.9646 0.1673 0.2039
vn 0.9221 0.2455 0.2992
vn 0.8487 0.3356 0.4089
vn 0.7225 0.4386 0.5344
vn 0.9987 0.0319 0.0389
vn 0.9882 0.0973 0.1185
vn 0.9987 0.0389 0.0319
vn 0.9882 0.1185 0.0973
vn 0.9646 0.2039 0.1673
vn 0.9221 0.2992 0.2455
vn 0.8487 0.4089 0.3356
vn 0.7225 0.5344 0.4386
vn 0.9646 0.2326 0.1243
vn 0.9221 0.3413 0.1825
vn 0.8487 0.4665 0.2493
vn 0.7225 0.6097 0.3259
vn 0.9987 0.0444 0.0237
vn 0.9882 0.1352 0.0723
vn 0.9987 0.0481 0.0146
vn 0.9882 0.1467 0.0445
vn 0.9646 0.2524 0.0766
vn 0.9221 0.3704 0.1124
vn 0.8487 0.5062 0.1535
vn 0.7225 0.6616 0.2007
vn 0.9221 0.3852 0.0379
vn 0.8487 0.5264 0.0518
vn 0.7225 0.6880 0.0678
vn 0.9987 0.0501 0.0049
vn 0.9882 0.1526 0.0150
vn 0.9646 0.2624 0.0258
vn 0.9987 0.0501 -0.0049
vn 0.9882 0.1526 -0.0150
vn 0.9646 0.2624 -0.0258
vn 0.9221 0.3852 -0.0379
vn 0.8487 0.5264 -0.0518
vn 0.7225 0.6880 -0.0678
vn 0.8487 0.5062 -0.1535
vn 0.7225 0.6616 -0.2007
vn 0.9987 0.0481 -0.0146
vn 0.9882 0.1467 -0.0445
vn 0.9646 0.2524 -0.0766
vn 0.9221 0.3704 -0.1124
vn 0.9987 0.0444 -0.0237
vn 0.9882 0.1352 -0.0723
vn 0.9646 0.2326 -0.1243
vn 0.9221 0.3413 -0.1825
vn 0.8487 0.4665 -0.2493
vn 0.7225 0.6097 -0.3259
vn 0.8487 0.4089 -0.3356
vn 0.7225 0.5344 -0.4386
vn 0.9987 0.0389 -0.0319
vn 0.9882 0.1185 -0.0973
vn 0.9646 0.2039 -0.1673
vn 0.9221 0.2992 -0.2455
vn 0.9882 0.0973 -0.1185
vn 0.9646 0.1673 -0.2039
vn 0.9221 0.2455 -0.2992
vn 0.8487 0.3356 -0.4089
vn 0.7225 0.4386 -0.5344
vn 0.9987 0.0319 -0.0389
vn 0.7225 0.3259 -0.6097
vn 0.9987 0.0237 -0.0444
vn 0.9882 0.0723 -0.1352
vn 0.9646 0.1243 -0.2326
vn 0.9221 0.1825 -0.3413
vn 0.8487 0.2493 -0.4665
vn 0.9882 0.0445 -0.1467
vn 0.9646 0.0766 -0.2524
vn 0.9221 0.1124 -0.3704
vn 0.8487 0.1535 -0.5062
vn 0.7225 0.2007 -0.6616
vn 0.9987 0.0146 -0.0481
vn 0.7225 0.0678 -0.6880
vn 0.9987 0.0049 -0.0501
vn 0.9882 0.0150 -0.1526
vn 0.9646 0.0258 -0.2624
vn 0.9221 0.0379 -0.3852
vn 0.8487 0.0518 -0.5264
vn -1.0000 -0.0000 -0.0000
vt 0.750000 0.625000
vt 0.750000 0.687500
vt 0.718750 0.687500
vt 0.718750 0.625000
vt 0.750000 0.937500
vt 0.734375 1.000000
vt 0.718750 0.937500
vt 0.750000 0.875000
vt 0.718750 0.875000
vt 0.750000 0.812500
vt 0.718750 0.812500
vt 0.750000 0.750000
vt 0.718750 0.750000
vt 0.687500 0.750000
vt 0.687500 0.687500
vt 0.687500 0.625000
vt 0.703125 1.000000
vt 0.687500 0.937500
vt 0.687500 0.875000
vt 0.687500 0.812500
vt 0.671875 1.000000
vt 0.656250 0.937500
vt 0.656250 0.875000
vt 0.656250 0.812500
vt 0.656250 0.750000
vt 0.656250 0.687500
vt 0.656250 0.625000
vt 0.625000 0.750000
vt 0.625000 0.687500
vt 0.625000 0.625000
vt 0.640625 1.000000
vt 0.625000 0.937500
vt 0.625000 0.875000
vt 0.625000 0.812500
vt 0.593750 0.937500
vt 0.593750 0.875000
vt 0.593750 0.812500
vt 0.593750 0.750000
vt 0.593750 0.687500
vt 0.593750 0.625000
vt 0.609375 1.000000
vt 0.562500 0.687500
vt 0.562500 0.625000
vt 0.578125 1.000000
vt 0.562500 0.937500
vt 0.562500 0.875000
vt 0.562500 0.812500
vt 0.562500 0.750000
vt 0.531250 0.875000
vt 0.531250 0.812500
vt 0.531250 0.750000
vt 0.531250 0.687500
vt 0.531250 0.625000
vt 0.546875 1.000000
vt 0.531250 0.937500
vt 0.515625 1.000000
vt 0.500000 0.937500
vt 0.500000 0.875000
vt 0.500000 0.812500
vt 0.500000 0.750000
vt 0.500000 0.687500
vt 0.500000 0.625000
vt 0.468750 0.875000
vt 0.468750 0.812500
vt 0.468750 0.750000
vt 0.468750 0.687500
vt 0.468750 0.625000
vt 0.484375 1.000000
vt 0.468750 0.937500
vt 0.453125 1.000000
vt 0.437500 0.937500
vt 0.437500 0.875000
vt 0.437500 0.812500
vt 0.437500 0.750000
vt 0.437500 0.687500
vt 0.437500 0.625000
vt 0.406250 0.812500
vt 0.406250 0.750000
vt 0.406250 0.687500
vt 0.406250 0.625000
vt 0.421875 1.000000
vt 0.406250 0.937500
vt 0.406250 0.875000
vt 0.390625 1.000000
vt 0.375000 0.937500
vt 0.375000 0.875000
vt 0.375000 0.812500
vt 0.375000 0.750000
vt 0.375000 0.687500
vt 0.375000 0.625000
vt 0.343750 0.812500
vt 0.343750 0.750000
vt 0.343750 0.687500
vt 0.343750 0.625000
vt 0.359375 1.000000
vt 0.343750 0.937500
vt 0.343750 0.875000
vt 0.328125 1.000000
vt 0.312500 0.937500
vt 0.312500 0.875000
vt 0.312500 0.812500
vt 0.312500 0.750000
vt 0.312500 0.687500
vt 0.312500 0.625000
vt 0.281250 0.750000
vt 0.281250 0.687500
vt 0.281250 0.625000
vt 0.296875 1.000000
vt 0.281250 0.937500
vt 0.281250 0.875000
vt 0.281250 0.812500
vt 0.250000 0.937500
vt 0.250000 0.875000
vt 0.250000 0.812500
vt 0.250000 0.750000
vt 0.250000 0.687500
vt 0.250000 0.625000
vt 0.265625 1.000000
vt 0.218750 0.687500
vt 0.218750 0.625000
vt 0.234375 1.000000
vt 0.218750 0.937500
vt 0.218750 0.875000
vt 0.218750 0.812500
vt 0.218750 0.750000
vt 0.187500 0.937500
vt 0.187500 0.875000
vt 0.187500 0.812500
vt 0.187500 0.750000
vt 0.187500 0.687500
vt 0.187500 0.625000
vt 0.203125 1.000000
vt 0.156250 0.687500
vt 0.156250 0.625000
vt 0.171875 1.000000
vt 0.156250 0.937500
vt 0.156250 0.875000
vt 0.156250 0.812500
vt 0.156250 0.750000
vt 0.125000 0.875000
vt 0.125000 0.812500
vt 0.125000 0.750000
vt 0.125000 0.687500
vt 0.125000 0.625000
vt 0.140625 1.000000
vt 0.125000 0.937500
vt 0.109375 1.000000
vt 0.093750 0.937500
vt 0.093750 0.875000
vt 0.093750 0.812500
vt 0.093750 0.750000
vt 0.093750 0.687500
vt 0.093750 0.625000
vt 0.062500 0.875000
vt 0.062500 0.812500
vt 0.062500 0.750000
vt 0.062500 0.687500
vt 0.062500 0.625000
vt 0.078125 1.000000
vt 0.062500 0.937500
vt 0.046875 1.000000
vt 0.031250 0.937500
vt 0.031250 0.875000
vt 0.031250 0.812500
vt 0.031250 0.750000
vt 0.031250 0.687500
vt 0.031250 0.625000
vt 0.000000 0.812500
vt 0.000000 0.750000
vt 0.000000 0.687500
vt 0.000000 0.625000
vt 0.015625 1.000000
vt 0.000000 0.937500
vt 0.000000 0.875000
vt 1.000000 0.937500
vt 0.984375 1.000000
vt 0.968750 0.937500
vt 1.000000 0.875000
vt 0.968750 0.875000
vt 1.000000 0.812500
vt 0.968750 0.812500
vt 1.000000 0.750000
vt 0.968750 0.750000
vt 1.000000 0.687500
vt 0.968750 0.687500
vt 1.000000 0.625000
vt 0.968750 0.625000
vt 0.937500 0.750000
vt 0.937500 0.687500
vt 0.937500 0.625000
vt 0.953125 1.000000
vt 0.937500 0.937500
vt 0.937500 0.875000
vt 0.937500 0.812500
vt 0.921875 1.000000
vt 0.906250 0.937500
vt 0.906250 0.875000
vt 0.906250 0.812500
vt 0.906250 0.750000
vt 0.906250 0.687500
vt 0.906250 0.625000
vt 0.875000 0.750000
vt 0.875000 0.687500
vt 0.875000 0.625000
vt 0.890625 1.000000
vt 0.875000 0.937500
vt 0.875000 0.875000
vt 0.875000 0.812500
vt 0.843750 0.937500
vt 0.843750 0.875000
vt 0.843750 0.812500
vt 0.843750 0.750000
vt 0.843750 0.687500
vt 0.843750 0.625000
vt 0.859375 1.000000
vt 0.812500 0.687500
vt 0.812500 0.625000
vt 0.828125 1.000000
vt 0.812500 0.937500
vt 0.812500 0.875000
vt 0.812500 0.812500
vt 0.812500 0.750000
vt 0.781250 0.937500
vt 0.781250 0.875000
vt 0.781250 0.812500
vt 0.781250 0.750000
vt 0.781250 0.687500
vt 0.781250 0.625000
vt 0.796875 1.000000
vt 0.765625 1.000000
s 0
f 193/1/1 2/2/1 7/3/1 8/4/1
f 190/5/2 33/6/2 3/7/2
f 191/8/3 190/5/3 3/7/3 4/9/3
f 1/10/4 191/8/4 4/9/4 5/11/4
f 192/12/5 1/10/5 5/11/5 6/13/5
f 2/2/6 192/12/6 6/13/6 7/3/6
f 7/3/7 6/13/7 12/14/7 13/15/7
f 8/4/8 7/3/8 13/15/8 14/16/8
f 3/7/9 33/17/9 9/18/9
f 4/9/10 3/7/10 9/18/10 10/19/10
f 5/11/11 4/9/11 10/19/11 11/20/11
f 6/13/12 5/11/12 11/20/12 12/14/12
f 9/18/13 33/21/13 15/22/13
f 10/19/14 9/18/14 15/22/14 16/23/14
f 11/20/15 10/19/15 16/23/15 17/24/15
f 12/14/16 11/20/16 17/24/16 18/25/16
f 13/15/17 12/14/17 18/25/17 19/26/17
f 14/16/18 13/15/18 19/26/18 20/27/18
f 19/26/19 18/25/19 24/28/19 25/29/19
f 20/27/20 19/26/20 25/29/20 26/30/20
f 15/22/21 33/31/21 21/32/21
f 16/23/22 15/22/22 21/32/22 22/33/22
f 17/24/23 16/23/23 22/33/23 23/34/23
f 18/25/24 17/24/24 23/34/24 24/28/24
f 22/33/25 21/32/25 27/35/25 28/36/25
f 23/34/26 22/33/26 28/36/26 29/37/26
f 24/28/27 23/34/27 29/37/27 30/38/27
f 25/29/28 24/28/28 30/38/28 31/39/28
f 26/30/29 25/29/29 31/39/29 32/40/29
f 21/32/30 33/41/30 27/35/30
f 32/40/31 31/39/31 38/42/31 39/43/31
f 27/35/32 33/44/32 34/45/32
f 28/36/33 27/35/33 34/45/33 35/46/33
f 29/37/34 28/36/34 35/46/34 36/47/34
f 30/38/35 29/37/35 36/47/35 37/48/35
f 31/39/36 30/38/36 37/48/36 38/42/36
f 36/47/37 35/46/37 41/49/37 42/50/37
f 37/48/38 36/47/38 42/50/38 43/51/38
f 38/42/39 37/48/39 43/51/39 44/52/39
f 39/43/40 38/42/40 44/52/40 45/53/40
f 34/45/41 33/54/41 40/55/41
f 35/46/42 34/45/42 40/55/42 41/49/42
f 40/55/43 33/56/43 46/57/43
f 41/49/44 40/55/44 46/57/44 47/58/44
f 42/50/45 41/49/45 47/58/45 48/59/45
f 43/51/46 42/50/46 48/59/46 49/60/46
f 44/52/47 43/51/47 49/60/47 50/61/47
f 45/53/48 44/52/48 50/61/48 51/62/48
f 48/59/49 47/58/49 53/63/49 54/64/49
f 49/60/50 48/59/50 54/64/50 55/65/50
f 50/61/51 49/60/51 55/65/51 56/66/51
f 51/62/52 50/61/52 56/66/52 57/67/52
f 46/57/53 33/68/53 52/69/53
f 47/58/54 46/57/54 52/69/54 53/63/54
f 52/69/55 33/70/55 58/71/55
f 53/63/56 52/69/56 58/71/56 59/72/56
f 54/64/57 53/63/57 59/72/57 60/73/57
f 55/65/58 54/64/58 60/73/58 61/74/58
f 56/66/59 55/65/59 61/74/59 62/75/59
f 57/67/60 56/66/60 62/75/60 63/76/60
f 61/74/61 60/73/61 66/77/61 67/78/61
f 62/75/62 61/74/62 67/78/62 68/79/62
f 63/76/63 62/75/63 68/79/63 69/80/63
f 58/71/64 33/81/64 64/82/64
f 59/72/65 58/71/65 64/82/65 65/83/65
f 60/73/66 59/72/66 65/83/66 66/77/66
f 64/82/67 33/84/67 70/85/67
f 65/83/68 64/82/68 70/85/68 71/86/68
f 66/77/69 65/83/69 71/86/69 72/87/69
f 67/78/70 66/77/70 72/87/70 73/88/70
f 68/79/71 67/78/71 73/88/71 74/89/71
f 69/80/72 68/79/72 74/89/72 75/90/72
f 73/88/73 72/87/73 78/91/73 79/92/73
f 74/89/74 73/88/74 79/92/74 80/93/74
f 75/90/75 74/89/75 80/93/75 81/94/75
f 70/85/76 33/95/76 76/96/76
f 71/86/77 70/85/77 76/96/77 77/97/77
f 72/87/78 71/86/78 77/97/78 78/91/78
f 76/96/79 33/98/79 82/99/79
f 77/97/80 76/96/80 82/99/80 83/100/80
f 78/91/81 77/97/81 83/100/81 84/101/81
f 79/92/82 78/91/82 84/101/82 85/102/82
f 80/93/83 79/92/83 85/102/83 86/103/83
f 81/94/84 80/93/84 86/103/84 87/104/84
f 86/103/85 85/102/85 91/105/85 92/106/85
f 87/104/86 86/103/86 92/106/86 93/107/86
f 82/99/87 33/108/87 88/109/87
f 83/100/88 82/99/88 88/109/88 89/110/88
f 84/101/89 83/100/89 89/110/89 90/111/89
f 85/102/90 84/101/90 90/111/90 91/105/90
f 89/110/91 88/109/91 94/112/91 95/113/91
f 90/111/92 89/110/92 95/113/92 96/114/92
f 91/105/93 90/111/93 96/114/93 97/115/93
f 92/106/94 91/105/94 97/115/94 98/116/94
f 93/107/95 92/106/95 98/116/95 99/117/95
f 88/109/96 33/118/96 94/112/96
f 99/117/97 98/116/97 104/119/97 105/120/97
f 94/112/98 33/121/98 100/122/98
f 95/113/99 94/112/99 100/122/99 101/123/99
f 96/114/100 95/113/100 101/123/100 102/124/100
f 97/115/101 96/114/101 102/124/101 103/125/101
f 98/116/102 97/115/102 103/125/102 104/119/102
f 101/123/103 100/122/103 106/126/103 107/127/103
f 102/124/104 101/123/104 107/127/104 108/128/104
f 103/125/105 102/124/105 108/128/105 109/129/105
f 104/119/106 103/125/106 109/129/106 110/130/106
f 105/120/107 104/119/107 110/130/107 111/131/107
f 100/122/108 33/132/108 106/126/108
f 111/131/109 110/130/109 116/133/109 117/134/109
f 106/126/110 33/135/110 112/136/110
f 107/127/111 106/126/111 112/136/111 113/137/111
f 108/128/112 107/127/112 113/137/112 114/138/112
f 109/129/113 108/128/113 114/138/113 115/139/113
f 110/130/114 109/129/114 115/139/114 116/133/114
f 114/138/115 113/137/115 119/140/115 120/141/115
f 115/139/116 114/138/116 120/141/116 121/142/116
f 116/133/117 115/139/117 121/142/117 122/143/117
f 117/134/118 116/133/118 122/143/118 123/144/118
f 112/136/119 33/145/119 118/146/119
f 113/137/120 112/136/120 118/146/120 119/140/120
f 118/146/121 33/147/121 124/148/121
f 119/140/122 118/146/122 124/148/122 125/149/122
f 120/141/123 119/140/123 125/149/123 126/150/123
f 121/142/124 120/141/124 126/150/124 127/151/124
f 122/143/125 121/142/125 127/151/125 128/152/125
f 123/144/126 122/143/126 128/152/126 129/153/126
f 126/150/127 125/149/127 131/154/127 132/155/127
f 127/151/128 126/150/128 132/155/128 133/156/128
f 128/152/129 127/151/129 133/156/129 134/157/129
f 129/153/130 128/152/130 134/157/130 135/158/130
f 124/148/131 33/159/131 130/160/131
f 125/149/132 124/148/132 130/160/132 131/154/132
f 130/160/133 33/161/133 136/162/133
f 131/154/134 130/160/134 136/162/134 137/163/134
f 132/155/135 131/154/135 137/163/135 138/164/135
f 133/156/136 132/155/136 138/164/136 139/165/136
f 134/157/137 133/156/137 139/165/137 140/166/137
f 135/158/138 134/157/138 140/166/138 141/167/138
f 139/165/139 138/164/139 144/168/139 145/169/139
f 140/166/140 139/165/140 145/169/140 146/170/140
f 141/167/141 140/166/141 146/170/141 147/171/141
f 136/162/142 33/172/142 142/173/142
f 137/163/143 136/162/143 142/173/143 143/174/143
f 138/164/144 137/163/144 143/174/144 144/168/144
f 142/175/145 33/176/145 148/177/145
f 143/178/146 142/175/146 148/177/146 149/179/146
f 144/180/147 143/178/147 149/179/147 150/181/147
f 145/182/148 144/180/148 150/181/148 151/183/148
f 146/184/149 145/182/149 151/183/149 152/185/149
f 147/186/150 146/184/150 152/185/150 153/187/150
f 152/185/151 151/183/151 157/188/151 158/189/151
f 153/187/152 152/185/152 158/189/152 159/190/152
f 148/177/153 33/191/153 154/192/153
f 149/179/154 148/177/154 154/192/154 155/193/154
f 150/181/155 149/179/155 155/193/155 156/194/155
f 151/183/156 150/181/156 156/194/156 157/188/156
f 154/192/157 33/195/157 160/196/157
f 155/193/158 154/192/158 160/196/158 161/197/158
f 156/194/159 155/193/159 161/197/159 162/198/159
f 157/188/160 156/194/160 162/198/160 163/199/160
f 158/189/161 157/188/161 163/199/161 164/200/161
f 159/190/162 158/189/162 164/200/162 165/201/162
f 164/200/163 163/199/163 169/202/163 170/203/163
f 165/201/164 164/200/164 170/203/164 171/204/164
f 160/196/165 33/205/165 166/206/165
f 161/197/166 160/196/166 166/206/166 167/207/166
f 162/198/167 161/197/167 167/207/167 168/208/167
f 163/199/168 162/198/168 168/208/168 169/202/168
f 167/207/169 166/206/169 172/209/169 173/210/169
f 168/208/170 167/207/170 173/210/170 174/211/170
f 169/202/171 168/208/171 174/211/171 175/212/171
f 170/203/172 169/202/172 175/212/172 176/213/172
f 171/204/173 170/203/173 176/213/173 177/214/173
f 166/206/174 33/215/174 172/209/174
f 177/214/175 176/213/175 182/216/175 183/217/175
f 172/209/176 33/218/176 178/219/176
f 173/210/177 172/209/177 178/219/177 179/220/177
f 174/211/178 173/210/178 179/220/178 180/221/178
f 175/212/179 174/211/179 180/221/179 181/222/179
f 176/213/180 175/212/180 181/222/180 182/216/180
f 179/220/181 178/219/181 184/223/181 185/224/181
f 180/221/182 179/220/182 185/224/182 186/225/182
f 181/222/183 180/221/183 186/225/183 187/226/183
f 182/216/184 181/222/184 187/226/184 188/227/184
f 183/217/185 182/216/185 188/227/185 189/228/185
f 178/219/186 33/229/186 184/223/186
f 189/228/187 188/227/187 2/2/187 193/1/187
f 184/223/188 33/230/188 190/5/188
f 185/224/189 184/223/189 190/5/189 191/8/189
f 186/225/190 185/224/190 191/8/190 1/10/190
f 187/226/191 186/225/191 1/10/191 192/12/191
f 188/227/192 187/226/192 192/12/192 2/2/192
f 14/16/193 20/27/193 26/30/193 32/40/193 39/43/193 45/53/193 51/62/193 57/67/193 63/76/193 69/80/193 75/90/193 81/94/193 87/104/193 93/107/193 99/117/193 105/120/193 111/131/193 117/134/193 123/144/193 129/153/193 135/158/193 141/167/193 147/171/193 153/187/193 159/190/193 165/201/193 171/204/193 177/214/193 183/217/193 189/228/193 193/1/193 8/4/193
